<svg width="113" height="121" viewBox="0 0 113 121" fill="none" xmlns="http://www.w3.org/2000/svg">
<path d="M110.293 25.948L112.643 4.68798C112.993 1.49798 109.803 -0.902017 106.843 0.327983L72.0628 14.748C68.2328 16.338 68.7528 21.908 72.8028 22.768L105.233 29.608C107.673 30.118 110.023 28.418 110.293 25.948Z" fill="#FF4806"/>
<path d="M105.283 71.1785L107.963 46.9285C108.203 44.7685 106.763 42.7884 104.643 42.3384L91.7028 39.6084C88.4428 38.9184 85.7028 42.1184 86.8928 45.2284L97.1528 72.2085C98.7228 76.3485 104.793 75.5685 105.283 71.1785Z" fill="#FF4806"/>
<path d="M67.2626 34.4582L40.2126 28.7482C39.3826 28.5682 38.5126 28.6482 37.7326 28.9782L2.60259 43.5482C-1.02741 45.0482 -0.807395 50.2582 2.9326 51.4582L58.0926 69.0782C59.0026 69.3682 59.7826 69.9582 60.3125 70.7482L92.5326 118.858C94.7226 122.128 99.7926 120.878 100.223 116.978C100.293 116.318 100.213 115.638 99.9726 115.018L70.3326 37.0782C69.8226 35.7382 68.6626 34.7482 67.2626 34.4482V34.4582Z" fill="#FF4806"/>
</svg>
